<svg xmlns="http://www.w3.org/2000/svg" xmlns:xlink="http://www.w3.org/1999/xlink" width="2000" zoomAndPan="magnify" viewBox="0 0 1500 1499.999933" height="2000" preserveAspectRatio="xMidYMid meet" version="1.0"><defs><clipPath id="ee28ac9edb"><path d="M 232.984375 232.984375 L 1267.011719 232.984375 L 1267.011719 1267.011719 L 232.984375 1267.011719 Z M 232.984375 232.984375 " clip-rule="nonzero"/></clipPath><clipPath id="ca3ed9ad86"><path d="M 750 232.984375 C 464.460938 232.984375 232.984375 464.460938 232.984375 750 C 232.984375 1035.535156 464.460938 1267.011719 750 1267.011719 C 1035.535156 1267.011719 1267.011719 1035.535156 1267.011719 750 C 1267.011719 464.460938 1035.535156 232.984375 750 232.984375 Z M 750 232.984375 " clip-rule="nonzero"/></clipPath></defs><g clip-path="url(#ee28ac9edb)"><g clip-path="url(#ca3ed9ad86)"><path stroke-linecap="butt" transform="matrix(0.75, 0, 0, 0.75, 232.984597, 232.984647)" fill="none" stroke-linejoin="miter" d="M 689.35393 -0.000362843 C 308.635147 -0.000362843 -0.000296376 308.63508 -0.000296376 689.353863 C -0.000296376 1070.067438 308.635147 1378.702881 689.35393 1378.702881 C 1070.067504 1378.702881 1378.702947 1070.067438 1378.702947 689.353863 C 1378.702947 308.63508 1070.067504 -0.000362843 689.35393 -0.000362843 Z M 689.35393 -0.000362843 " stroke="#000000" stroke-width="180" stroke-opacity="1" stroke-miterlimit="4"/></g></g><path stroke-linecap="butt" transform="matrix(0.649519, -0.375, 0.375, 0.649519, 142.416964, 1029.320507)" fill="none" stroke-linejoin="miter" d="M 0.000882486 50.001154 L 1823.34075 49.998822 " stroke="#000000" stroke-width="100" stroke-opacity="1" stroke-miterlimit="4"/><path stroke-linecap="butt" transform="matrix(0.664981, 0.346844, -0.346844, 0.664981, 161.098116, 362.889323)" fill="none" stroke-linejoin="miter" d="M 0.00121183 49.996904 L 1823.34191 50.002597 " stroke="#000000" stroke-width="100" stroke-opacity="1" stroke-miterlimit="4"/></svg>