<svg xmlns="http://www.w3.org/2000/svg" xmlns:xlink="http://www.w3.org/1999/xlink" width="2000" zoomAndPan="magnify" viewBox="0 0 1500 1499.999933" height="2000" preserveAspectRatio="xMidYMid meet" version="1.0"><defs><clipPath id="91f3b72106"><path d="M 231.085938 252.160156 L 1268.914062 252.160156 L 1268.914062 1247.832031 L 231.085938 1247.832031 Z M 231.085938 252.160156 " clip-rule="nonzero"/></clipPath><clipPath id="5eca16586d"><path d="M 357.992188 357.992188 L 1141.742188 357.992188 L 1141.742188 1141.742188 L 357.992188 1141.742188 Z M 357.992188 357.992188 " clip-rule="nonzero"/></clipPath><clipPath id="e20b1ec049"><path d="M 749.996094 357.992188 C 533.496094 357.992188 357.992188 533.496094 357.992188 749.996094 C 357.992188 966.492188 533.496094 1142 749.996094 1142 C 966.492188 1142 1142 966.492188 1142 749.996094 C 1142 533.496094 966.492188 357.992188 749.996094 357.992188 Z M 749.996094 357.992188 " clip-rule="nonzero"/></clipPath></defs><g clip-path="url(#91f3b72106)"><path stroke-linecap="butt" transform="matrix(0.75, 0, 0, 0.75, 231.081767, 252.158629)" fill="none" stroke-linejoin="miter" d="M 0.00556061 0.00203569 L 1383.776513 0.00203569 L 1383.776513 1327.56465 L 0.00556061 1327.56465 Z M 0.00556061 0.00203569 " stroke="#000000" stroke-width="180" stroke-opacity="1" stroke-miterlimit="4"/></g><g clip-path="url(#5eca16586d)"><g clip-path="url(#e20b1ec049)"><path stroke-linecap="butt" transform="matrix(0.75, 0, 0, 0.75, 357.991702, 357.991591)" fill="none" stroke-linejoin="miter" d="M 522.672568 0.000795647 C 234.005876 0.000795647 0.000647713 234.006024 0.000647713 522.672716 C 0.000647713 811.334199 234.005876 1045.344636 522.672568 1045.344636 C 811.334051 1045.344636 1045.344488 811.334199 1045.344488 522.672716 C 1045.344488 234.006024 811.334051 0.000795647 522.672568 0.000795647 Z M 522.672568 0.000795647 " stroke="#000000" stroke-width="180" stroke-opacity="1" stroke-miterlimit="4"/></g></g><path stroke-linecap="butt" transform="matrix(0.649519, -0.375, 0.375, 0.649519, 139.101847, 1059.397857)" fill="none" stroke-linejoin="miter" d="M -0.00112291 50.001191 L 1823.343255 50.001462 " stroke="#000000" stroke-width="100" stroke-opacity="1" stroke-miterlimit="4"/><path stroke-linecap="butt" transform="matrix(0.664981, 0.346844, -0.346844, 0.664981, 157.782999, 392.966197)" fill="none" stroke-linejoin="miter" d="M 0.00045932 49.999177 L 1823.338749 50.000253 " stroke="#000000" stroke-width="100" stroke-opacity="1" stroke-miterlimit="4"/></svg>